<svg width="779" height="780" viewBox="0 0 779 780" fill="none" xmlns="http://www.w3.org/2000/svg">
<g filter="url(#filter0_f_401_26)">
<path d="M99 390C99 550.758 229.104 681 389.5 681C549.896 681 680 550.758 680 390C680 229.242 549.896 99 389.5 99C229.104 99 99 229.242 99 390Z" stroke="#72E97E" stroke-width="58"/>
</g>
<g filter="url(#filter1_f_401_26)">
<path d="M99 390C99 550.758 229.104 681 389.5 681C549.896 681 680 550.758 680 390C680 229.242 549.896 99 389.5 99C229.104 99 99 229.242 99 390Z" stroke="#72E97E" stroke-width="58"/>
</g>
<defs>
<filter id="filter0_f_401_26" x="0" y="0" width="779" height="780" filterUnits="userSpaceOnUse" color-interpolation-filters="sRGB">
<feFlood flood-opacity="0" result="BackgroundImageFix"/>
<feBlend mode="normal" in="SourceGraphic" in2="BackgroundImageFix" result="shape"/>
<feGaussianBlur stdDeviation="35" result="effect1_foregroundBlur_401_26"/>
</filter>
<filter id="filter1_f_401_26" x="56" y="56" width="667" height="668" filterUnits="userSpaceOnUse" color-interpolation-filters="sRGB">
<feFlood flood-opacity="0" result="BackgroundImageFix"/>
<feBlend mode="normal" in="SourceGraphic" in2="BackgroundImageFix" result="shape"/>
<feGaussianBlur stdDeviation="7" result="effect1_foregroundBlur_401_26"/>
</filter>
</defs>
</svg>
