<svg width="70" height="69" viewBox="0 0 70 69" fill="none" xmlns="http://www.w3.org/2000/svg">
<path d="M49.2352 26.0476L29.4106 45.9365L20.9143 37.4127" stroke="#72E97E" stroke-width="1.5" stroke-linecap="round" stroke-linejoin="round"/>
<path d="M35.0744 60.1429C49.1515 60.1429 60.5631 48.6943 60.5631 34.5714C60.5631 20.4487 49.1515 9 35.0744 9C20.9974 9 9.58569 20.4487 9.58569 34.5714C9.58569 48.6943 20.9974 60.1429 35.0744 60.1429Z" stroke="#72E97E" stroke-width="1.5" stroke-linecap="round" stroke-linejoin="round"/>
<g filter="url(#filter0_f_364_6899)">
<path d="M49.2352 26.0476L29.4106 45.9365L20.9143 37.4127" stroke="#72E97E" stroke-width="1.5" stroke-linecap="round" stroke-linejoin="round"/>
<path d="M35.0744 60.1429C49.1515 60.1429 60.5631 48.6943 60.5631 34.5714C60.5631 20.4487 49.1515 9 35.0744 9C20.9974 9 9.58569 20.4487 9.58569 34.5714C9.58569 48.6943 20.9974 60.1429 35.0744 60.1429Z" stroke="#72E97E" stroke-width="1.5" stroke-linecap="round" stroke-linejoin="round"/>
</g>
<defs>
<filter id="filter0_f_364_6899" x="0.835693" y="0.25" width="68.4773" height="68.6428" filterUnits="userSpaceOnUse" color-interpolation-filters="sRGB">
<feFlood flood-opacity="0" result="BackgroundImageFix"/>
<feBlend mode="normal" in="SourceGraphic" in2="BackgroundImageFix" result="shape"/>
<feGaussianBlur stdDeviation="4" result="effect1_foregroundBlur_364_6899"/>
</filter>
</defs>
</svg>
