<svg width="23" height="23" viewBox="0 0 23 23" fill="none" xmlns="http://www.w3.org/2000/svg">
<path d="M22.5061 3.06078C23.0919 2.47499 23.0919 1.52525 22.5061 0.93946C21.9203 0.353674 20.9706 0.353674 20.3848 0.93946L22.5061 3.06078ZM0.93934 20.3849C0.353553 20.9707 0.353553 21.9204 0.93934 22.5062C1.52513 23.092 2.47487 23.092 3.06066 22.5062L0.93934 20.3849ZM20.3848 0.93946L0.93934 20.3849L3.06066 22.5062L22.5061 3.06078L20.3848 0.93946Z" fill="white"/>
<path d="M3.06078 0.93946C2.47499 0.353674 1.52525 0.353674 0.93946 0.93946C0.353674 1.52525 0.353674 2.47499 0.93946 3.06078L3.06078 0.93946ZM20.3849 22.5062C20.9707 23.092 21.9204 23.092 22.5062 22.5062C23.092 21.9204 23.092 20.9707 22.5062 20.3849L20.3849 22.5062ZM0.93946 3.06078L20.3849 22.5062L22.5062 20.3849L3.06078 0.93946L0.93946 3.06078Z" fill="white"/>
</svg>
