<svg width="33" height="50" viewBox="0 0 33 50" fill="none" xmlns="http://www.w3.org/2000/svg">
<path d="M16.5 50C12.1261 49.9929 7.93343 48.2732 4.84063 45.2175C1.74782 42.1618 0.00714104 38.0194 0 33.698L0 16.302C0 11.9785 1.73839 7.83198 4.83274 4.77475C7.92709 1.71753 12.1239 0 16.5 0C20.8761 0 25.0729 1.71753 28.1673 4.77475C31.2616 7.83198 33 11.9785 33 16.302V33.698C32.9929 38.0194 31.2522 42.1618 28.1594 45.2175C25.0666 48.2732 20.8739 49.9929 16.5 50ZM16.5 2.26788C12.7349 2.27493 9.12606 3.75579 6.46373 6.38617C3.8014 9.01656 2.30255 12.5821 2.29542 16.302V33.698C2.29542 37.4201 3.79197 40.9897 6.45584 43.6216C9.11972 46.2535 12.7327 47.7321 16.5 47.7321C20.2673 47.7321 23.8803 46.2535 26.5442 43.6216C29.208 40.9897 30.7046 37.4201 30.7046 33.698V16.302C30.6974 12.5821 29.1986 9.01656 26.5363 6.38617C23.8739 3.75579 20.2651 2.27493 16.5 2.26788Z" fill="white"/>
<path d="M16.5001 25.4269C16.1967 25.427 15.9054 25.3098 15.6884 25.1004C15.4714 24.891 15.3459 24.6059 15.3389 24.3063V11.5529C15.3389 11.2486 15.4612 10.9568 15.679 10.7416C15.8967 10.5265 16.1921 10.4056 16.5001 10.4056C16.8081 10.4056 17.1034 10.5265 17.3212 10.7416C17.5389 10.9568 17.6613 11.2486 17.6613 11.5529V24.3063C17.6542 24.6059 17.5288 24.891 17.3118 25.1004C17.0948 25.3098 16.8034 25.427 16.5001 25.4269Z" fill="white"/>
</svg>
