<svg width="3603" height="3073" viewBox="0 0 3603 3073" fill="none" xmlns="http://www.w3.org/2000/svg">
<path d="M2550.61 2304.46C2974.76 1880.22 2974.76 1192.4 2550.61 768.155C2126.46 343.915 1438.78 343.915 1014.64 768.155C590.49 1192.39 590.49 1880.22 1014.64 2304.46C1438.78 2728.7 2126.46 2728.7 2550.61 2304.46Z" stroke="url(#paint0_linear_4_2766)" stroke-width="0.5" stroke-miterlimit="10" stroke-linecap="round" stroke-linejoin="round"/>
<path opacity="0.9375" d="M1775.01 442.198C1939.29 437.634 2099.02 470.889 2236.57 542.617C2282.86 566.743 2326.54 594.13 2370.22 622.821C2446.49 673.682 2519.51 727.804 2585.35 788.446C2675.97 871.911 2751.59 970.373 2809.61 1082.53C2880.02 1220.12 2919.79 1380.52 2911.31 1543.54C2900.23 1748.29 2822 1922.39 2720.95 2089.32C2634.9 2231.47 2536.46 2371.02 2398.25 2462.96C2290.68 2534.68 2162.9 2572.5 2033.17 2599.89C1947.12 2618.15 1857.15 2630.54 1766.53 2634.45C1694.82 2637.71 1625.07 2634.45 1556.61 2624.02C1412.54 2602.5 1275.64 2547.73 1156.99 2467.52C1036.38 2386.66 935.331 2279.73 859.708 2157.79C786.04 2039.11 735.842 1905.44 705.853 1763.29C690.207 1690.91 679.776 1616.57 679.776 1540.28C680.428 1400.74 716.284 1270.32 761.919 1146.43C799.73 1043.4 844.061 946.899 908.602 860.174C949.021 806.052 997.264 757.147 1049.42 714.11C1101.57 671.074 1157.64 633.906 1216.96 600.651C1381.9 507.405 1571.61 447.415 1775.01 442.198Z" stroke="url(#paint1_linear_4_2766)" stroke-width="0.5" stroke-miterlimit="10" stroke-linecap="round" stroke-linejoin="round"/>
<path opacity="0.875" d="M1767.84 434.375C1936.03 425.898 2104.88 457.197 2242.44 538.053C2288.07 564.788 2331.75 595.435 2376.08 626.082C2453.66 679.552 2531.89 732.37 2602.3 790.404C2700.09 869.956 2782.23 965.158 2846.77 1077.31C2925.66 1215.55 2969.99 1384.44 2953.04 1550.06C2931.52 1758.72 2829.82 1917.83 2721.6 2089.32C2631.64 2234.08 2547.54 2393.19 2404.77 2486.43C2294.59 2558.81 2156.39 2580.98 2024.7 2605.76C1934.73 2622.71 1841.51 2636.41 1748.28 2643.58C1675.92 2649.45 1606.16 2650.1 1537.06 2642.93C1391.68 2627.28 1250.21 2573.81 1130.26 2491.65C1008.35 2408.18 908.601 2297.33 836.89 2170.83C767.134 2048.24 722.803 1910.66 690.858 1767.2C674.56 1694.17 660.87 1619.18 661.522 1541.59C662.826 1400.74 709.112 1272.28 752.791 1145.78C789.299 1040.8 823.851 942.335 887.088 853.002C926.855 797.576 976.401 748.019 1030.51 706.939C1083.97 665.207 1141.99 630.647 1202.62 598.696C1372.77 509.362 1563.13 444.808 1767.84 434.375Z" stroke="url(#paint2_linear_4_2766)" stroke-width="0.5" stroke-miterlimit="10" stroke-linecap="round" stroke-linejoin="round"/>
<path opacity="0.8125" d="M1760.02 426.553C1932.78 413.511 2109.45 443.507 2247.65 534.144C2293.29 564.139 2336.32 597.395 2381.95 629.998C2460.83 686.728 2543.63 737.589 2619.25 793.015C2723.56 869.307 2812.87 959.944 2884.58 1073.4C2971.94 1211.64 3020.84 1390.31 2996.06 1558.54C2963.47 1771.12 2838.3 1915.22 2724.21 2091.93C2629.68 2239.3 2560.58 2417.97 2413.24 2512.52C2300.46 2585.55 2152.47 2592.72 2017.53 2614.89C1924.3 2629.89 1827.16 2644.89 1731.98 2656.62C1659.62 2665.75 1589.86 2669.67 1519.45 2665.75C1372.12 2655.97 1226.74 2603.16 1105.48 2519.04C982.269 2433.62 883.829 2317.55 815.377 2187.79C748.88 2061.29 711.069 1920.44 677.169 1775.03C659.567 1700.69 643.268 1625.05 644.572 1546.15C646.528 1403.35 702.594 1276.85 744.969 1148.39C779.521 1041.45 804.946 940.382 866.227 849.093C904.69 791.711 956.192 742.806 1012.26 702.378C1067.67 661.949 1127.65 629.346 1189.58 598.699C1362.99 511.974 1554.01 442.202 1760.02 426.553Z" stroke="url(#paint3_linear_4_2766)" stroke-width="0.5" stroke-miterlimit="10" stroke-linecap="round" stroke-linejoin="round"/>
<path opacity="0.75" d="M1752.19 418.727C1929.52 401.121 2114.01 429.16 2252.87 529.578C2298.5 562.181 2340.88 598.697 2387.17 632.605C2468.01 692.595 2555.36 742.152 2635.55 793.666C2747.03 866.045 2842.86 953.422 2921.09 1067.53C3016.93 1206.42 3071.04 1393.57 3037.14 1564.41C2994.11 1780.9 2844.82 1910.01 2724.86 2091.93C2626.42 2241.91 2571.01 2439.49 2420.41 2535.99C2305.02 2610.33 2146.61 2601.85 2009.05 2620.76C1911.91 2634.45 1812.17 2650.76 1714.38 2666.4C1641.36 2678.14 1571.61 2686.62 1500.55 2684.66C1351.91 2681.4 1201.97 2629.24 1078.75 2543.16C954.236 2455.79 856.448 2335.15 792.559 2201.48C729.974 2071.07 698.03 1926.96 662.174 1779.59C643.92 1703.95 624.362 1627.66 625.666 1548.11C628.274 1404 694.77 1279.46 735.19 1147.74C768.438 1039.5 784.084 935.816 844.061 841.919C881.873 783.232 935.331 733.675 992.048 694.551C1049.42 655.427 1110.7 625.432 1173.93 595.437C1353.21 513.928 1545.53 439.593 1752.19 418.727Z" stroke="url(#paint4_linear_4_2766)" stroke-width="0.5" stroke-miterlimit="10" stroke-linecap="round" stroke-linejoin="round"/>
<path opacity="0.6875" d="M1745.02 410.898C1926.26 388.728 2119.23 415.463 2258.74 525.01C2303.72 560.874 2346.1 599.998 2393.03 635.862C2475.18 698.46 2567.75 746.713 2652.5 795.618C2771.15 864.085 2873.5 948.202 2958.9 1062.31C3063.21 1201.86 3121.89 1397.48 3080.16 1570.93C3026.05 1790.67 2853.29 1905.44 2726.82 2092.58C2624.47 2245.17 2583.4 2462.3 2428.24 2560.77C2310.24 2635.75 2141.39 2611.63 2001.88 2627.93C1901.48 2639.67 1797.83 2657.27 1698.08 2676.83C1625.07 2691.18 1554.66 2703.57 1482.95 2704.87C1333 2708.13 1178.5 2656.62 1053.98 2567.94C928.16 2478.61 831.675 2353.41 771.046 2215.82C712.373 2081.5 686.296 1934.13 648.484 1784.81C628.927 1708.51 606.761 1631.57 608.717 1550.06C611.977 1404.65 688.904 1281.41 727.367 1147.73C759.311 1037.54 765.179 931.9 823.852 835.394C860.36 774.752 915.773 725.847 974.447 688.027C1033.12 650.207 1096.36 622.168 1161.55 594.129C1344.09 515.881 1537.06 436.329 1745.02 410.898Z" stroke="url(#paint5_linear_4_2766)" stroke-width="0.5" stroke-miterlimit="10" stroke-linecap="round" stroke-linejoin="round"/>
<path opacity="0.625" d="M1737.2 403.075C1923 376.34 2123.79 401.119 2263.95 521.099C2308.94 559.571 2350.66 601.956 2398.25 639.776C2481.7 705.634 2579.48 751.931 2668.8 797.576C2794.62 862.131 2903.49 942.987 2996.06 1057.75C3108.2 1197.95 3172.08 1402.04 3121.89 1578.75C3057.35 1802.41 2860.46 1902.18 2728.12 2094.54C2621.86 2249.08 2595.13 2486.43 2436.06 2586.2C2315.45 2661.84 2136.83 2622.06 1994.06 2635.76C1889.75 2645.54 1782.83 2664.45 1680.48 2688.57C1606.81 2705.53 1537.06 2721.83 1464.04 2726.39C1312.14 2735.52 1153.73 2685.31 1027.9 2594.68C900.778 2503.39 805.597 2372.97 748.88 2231.47C694.118 2093.23 673.257 1942.61 634.793 1791.33C614.583 1713.73 589.158 1636.14 591.114 1553.97C595.026 1407.26 681.732 1285.97 718.891 1149.69C749.532 1037.54 745.62 929.946 802.338 830.831C838.194 768.885 894.911 719.328 955.54 682.812C1016.17 646.296 1080.71 620.213 1147.21 593.479C1334.31 517.839 1527.93 433.722 1737.2 403.075Z" stroke="url(#paint6_linear_4_2766)" stroke-width="0.5" stroke-miterlimit="10" stroke-linecap="round" stroke-linejoin="round"/>
<path opacity="0.5625" d="M1729.37 395.249C1919.74 363.298 2128.35 387.425 2268.52 516.534C2313.5 557.614 2354.57 603.259 2403.46 643.035C2488.87 712.154 2590.57 756.495 2685.1 799.531C2818.09 860.174 2933.48 937.77 3032.57 1052.53C3153.18 1193.38 3222.28 1405.95 3162.96 1585.27C3087.33 1812.84 2867.63 1897.61 2728.77 2095.19C2618.6 2252.34 2606.21 2509.25 2442.58 2610.32C2319.37 2686.62 2130.31 2631.84 1984.93 2642.27C1877.36 2650.1 1766.53 2670.97 1662.23 2699C1588.56 2719.22 1518.15 2739.43 1444.48 2746.61C1291.28 2761.6 1128.3 2712.7 1001.17 2619.45C872.745 2525.55 778.868 2391.23 726.062 2245.82C674.56 2103.67 660.218 1949.78 619.799 1796.54C598.937 1717.64 570.253 1639.39 572.86 1555.93C577.424 1407.91 674.56 1287.93 709.764 1149.69C739.101 1035.58 725.411 925.381 780.824 824.31C815.376 761.059 874.701 711.502 936.634 676.291C999.219 641.079 1065.72 617.605 1132.86 591.522C1325.18 520.446 1519.45 430.461 1729.37 395.249Z" stroke="url(#paint7_linear_4_2766)" stroke-width="0.5" stroke-miterlimit="10" stroke-linecap="round" stroke-linejoin="round"/>
<path opacity="0.5" d="M1722.2 387.427C1916.48 350.911 2134.22 373.082 2274.38 512.624C2318.71 556.965 2359.13 605.218 2409.33 646.95C2496.04 719.33 2602.95 761.714 2702.05 802.142C2842.21 858.872 2964.12 932.556 3070.38 1048.62C3199.46 1189.47 3273.13 1411.17 3205.98 1593.1C3119.93 1823.93 2876.11 1894.36 2731.38 2097.15C2617.3 2256.91 2619.25 2533.38 2451.71 2636.41C2325.23 2713.35 2126.4 2642.93 1978.41 2650.75C1866.93 2656.62 1752.84 2678.79 1646.58 2710.75C1572.26 2733.57 1502.51 2757.69 1427.53 2768.13C1273.03 2789.65 1105.48 2740.74 976.402 2646.19C846.017 2550.34 753.444 2411.45 704.55 2262.12C656.959 2116.06 648.484 1958.91 606.109 1804.37C583.944 1724.82 552.651 1645.27 555.259 1561.15C560.474 1411.17 668.042 1293.8 701.29 1152.95C728.671 1037.54 705.853 924.731 759.311 821.052C792.559 755.845 853.84 706.288 917.729 672.381C981.617 638.473 1050.07 616.955 1119.17 592.828C1315.4 522.405 1510.33 427.203 1722.2 387.427Z" stroke="url(#paint8_linear_4_2766)" stroke-width="0.5" stroke-miterlimit="10" stroke-linecap="round" stroke-linejoin="round"/>
<path opacity="0.4375" d="M1714.38 379.602C1913.22 337.869 2138.78 358.736 2279.6 508.059C2323.93 555.008 2363.7 606.521 2414.55 650.21C2502.56 725.198 2614.69 766.278 2719 803.446C2865.68 856.263 2994.76 926.687 3108.19 1042.75C3245.75 1184.25 3323.98 1415.09 3248.36 1599.62C3151.22 1834.37 2883.93 1889.79 2732.69 2097.8C2614.69 2260.17 2630.99 2556.2 2458.88 2660.54C2329.8 2738.78 2121.18 2652.06 1970.59 2657.93C1855.85 2661.84 1737.85 2685.31 1629.63 2721.83C1555.31 2747.26 1484.9 2775.3 1409.28 2788.34C1252.82 2815.73 1081.36 2768.13 950.976 2670.97C819.288 2573.16 728.018 2429.05 683.035 2276.47C639.356 2126.49 636.749 1966.08 592.418 1809.59C569.601 1728.73 535.049 1649.18 538.308 1563.76C544.175 1412.48 661.522 1296.41 693.466 1152.95C719.543 1035.58 686.947 920.818 739.101 814.531C771.697 748.02 834.282 698.463 900.126 665.208C965.971 632.604 1035.73 613.694 1106.13 590.22C1306.28 524.361 1501.85 423.942 1714.38 379.602Z" stroke="url(#paint9_linear_4_2766)" stroke-width="0.5" stroke-miterlimit="10" stroke-linecap="round" stroke-linejoin="round"/>
<path opacity="0.375" d="M1707.21 371.775C1909.96 325.478 2144.65 345.04 2285.47 503.493C2329.8 553.702 2368.91 607.824 2420.41 652.816C2510.38 731.065 2627.07 770.189 2735.95 804.748C2889.8 853.653 3025.4 920.816 3145.36 1037.54C3291.39 1179.69 3374.83 1419 3290.73 1606.14C3183.17 1844.8 2892.41 1885.22 2734.64 2098.45C2612.73 2263.42 2643.37 2579.03 2466.7 2684.66C2335.01 2763.56 2115.97 2661.19 1962.76 2664.45C1844.11 2666.4 1722.86 2691.18 1612.68 2732.26C1537.71 2760.3 1467.95 2792.25 1391.03 2808.55C1233.26 2841.81 1057.24 2795.51 925.552 2696.4C792.559 2596.63 702.593 2447.96 660.87 2291.46C620.451 2137.58 624.362 1973.25 578.076 1815.45C553.955 1733.29 516.795 1653.09 520.706 1566.36C527.226 1413.78 655.003 1299.67 684.991 1153.6C709.765 1034.28 667.389 917.556 717.588 808.661C748.88 740.846 813.421 690.636 881.221 659.337C948.369 628.038 1020.73 611.084 1092.44 588.914C1296.5 526.315 1492.73 420.68 1707.21 371.775Z" stroke="url(#paint10_linear_4_2766)" stroke-width="0.5" stroke-miterlimit="10" stroke-linecap="round" stroke-linejoin="round"/>
<path opacity="0.3125" d="M1699.39 363.953C1906.7 312.439 2149.21 330.697 2290.68 499.583C2335.01 552.4 2373.48 609.782 2425.63 656.731C2516.9 738.24 2638.81 775.408 2752.24 806.707C2913.27 851.7 3055.39 915.602 3182.51 1032.97C3337.02 1175.78 3425.03 1423.56 3332.46 1613.31C3213.81 1855.88 2900.23 1881.97 2735.95 2099.76C2610.12 2267.99 2655.11 2602.5 2474.52 2710.09C2340.23 2789.65 2111.4 2671.62 1954.94 2672.27C1833.03 2672.27 1707.86 2698.36 1595.08 2743.35C1520.11 2774 1449.7 2810.51 1372.12 2829.42C1213.05 2868.55 1032.47 2823.55 898.823 2721.83C764.526 2620.11 675.213 2466.87 638.053 2305.81C601.545 2148.01 611.324 1980.43 563.082 1820.67C538.309 1737.21 497.889 1656.35 501.801 1568.97C508.972 1415.09 646.528 1302.28 675.213 1154.26C698.682 1033.63 646.528 914.298 695.422 802.795C726.063 733.023 792.559 683.466 861.663 652.819C930.767 622.824 1004.43 608.478 1077.45 587.612C1286.72 528.926 1484.25 417.422 1699.39 363.953Z" stroke="url(#paint11_linear_4_2766)" stroke-width="0.5" stroke-miterlimit="10" stroke-linecap="round" stroke-linejoin="round"/>
<path opacity="0.25" d="M1691.56 356.125C1902.79 299.396 2154.43 316.349 2295.9 495.016C2340.23 550.442 2378.04 611.736 2431.5 659.989C2524.07 744.758 2651.2 779.317 2769.19 808.661C2937.39 849.741 3086.03 910.383 3219.67 1027.76C3382 1171.21 3475.23 1427.47 3374.18 1620.49C3245.75 1866.97 2908.05 1878.7 2737.25 2101.71C2607.52 2272.55 2666.84 2626.63 2481.69 2735.52C2344.79 2815.73 2105.53 2682.05 1947.12 2680.1C1821.3 2678.14 1692.87 2704.87 1578.13 2755.08C1502.5 2788.34 1432.1 2828.77 1353.87 2850.94C1192.84 2895.93 1008.35 2852.24 873.397 2748.56C737.797 2644.23 649.787 2486.43 615.887 2322.11C583.291 2160.4 598.285 1989.56 549.391 1827.84C523.314 1743.73 480.287 1661.57 484.85 1572.88C492.673 1417.04 640.66 1306.84 667.389 1156.21C688.903 1033.62 627.622 911.687 674.56 798.227C703.897 727.152 772.349 676.943 843.409 648.252C914.469 619.561 989.44 607.172 1063.76 587.61C1277.59 530.88 1475.12 414.159 1691.56 356.125Z" stroke="url(#paint12_linear_4_2766)" stroke-width="0.5" stroke-miterlimit="10" stroke-linecap="round" stroke-linejoin="round"/>
<path opacity="0.1875" d="M1684.39 348.302C1900.18 287.008 2159.64 302.005 2301.76 491.105C2345.44 549.139 2383.25 613.694 2437.36 663.903C2531.89 751.28 2662.93 784.535 2786.14 811.27C2961.51 848.438 3116.67 905.168 3257.49 1023.84C3428.29 1167.3 3526.73 1432.69 3417.21 1628.31C3277.04 1878.05 2916.53 1874.79 2739.21 2103.02C2605.56 2275.81 2678.58 2650.1 2489.52 2760.3C2350.01 2841.81 2100.32 2691.83 1939.29 2687.27C1809.56 2683.36 1677.87 2711.4 1561.18 2766.17C1484.9 2801.38 1415.15 2846.37 1335.61 2871.8C1173.28 2922.67 984.877 2879.63 847.973 2773.99C711.069 2667.71 624.363 2505.34 594.374 2337.11C565.038 2171.48 586.551 1997.38 535.701 1833.71C508.972 1748.29 462.033 1666.13 467.249 1576.15C476.376 1419 634.141 1310.75 658.915 1157.52C679.124 1032.97 608.065 909.08 653.699 793.012C682.384 720.633 752.14 669.771 825.155 642.385C897.519 614.346 975.098 605.217 1050.72 586.307C1267.81 532.837 1466.65 410.901 1684.39 348.302Z" stroke="url(#paint13_linear_4_2766)" stroke-width="0.5" stroke-miterlimit="10" stroke-linecap="round" stroke-linejoin="round"/>
<path opacity="0.125" d="M1676.57 340.479C1896.27 273.968 2164.86 287.662 2306.98 486.543C2350.66 547.837 2387.82 615 2442.58 667.165C2538.41 757.803 2674.67 789.102 2802.44 812.576C2984.98 845.832 3146.66 899.301 3294.65 1017.98C3473.92 1162.08 3576.93 1435.95 3458.93 1634.18C3308.34 1887.84 2923.7 1869.58 2740.51 2103.02C2602.95 2279.08 2690.96 2672.27 2497.34 2783.78C2355.22 2865.94 2095.76 2700.31 1931.47 2693.14C1798.48 2687.27 1662.88 2716.61 1544.23 2775.3C1467.95 2813.12 1397.54 2862.03 1317.36 2890.06C1153.72 2947.45 960.755 2905.06 821.895 2796.82C683.035 2688.58 598.285 2521.65 572.208 2349.5C546.783 2180.61 574.164 2002.6 521.358 1836.97C493.977 1750.25 443.779 1667.44 449.646 1576.15C459.425 1417.7 626.97 1310.76 650.439 1154.91C669.345 1029.06 588.506 902.562 632.837 783.885C660.218 709.55 732.582 659.34 806.901 632.606C881.22 605.871 960.103 598.698 1037.03 581.744C1258.68 534.796 1457.52 406.99 1676.57 340.479Z" stroke="url(#paint14_linear_4_2766)" stroke-width="0.5" stroke-miterlimit="10" stroke-linecap="round" stroke-linejoin="round"/>
<path opacity="0.0625" d="M1668.74 332.653C1892.36 260.274 2170.07 273.315 2312.19 481.977C2355.87 545.879 2391.73 616.303 2447.79 670.424C2544.93 764.322 2686.4 793.665 2818.74 814.531C3008.45 843.874 3176.65 894.084 3331.15 1013.41C3518.91 1158.17 3626.47 1441.17 3500.65 1642.01C3338.98 1898.92 2930.87 1866.32 2741.81 2104.97C2600.35 2283.64 2702.7 2696.4 2505.16 2809.86C2360.44 2892.67 2090.54 2711.4 1924.3 2701.62C1787.4 2693.79 1648.54 2724.44 1527.28 2787.69C1450.35 2828.12 1379.94 2880.93 1299.1 2912.23C1133.51 2975.48 936.634 2934.4 796.47 2824.2C656.306 2714 572.208 2541.86 550.042 2365.8C528.529 2193 561.777 2011.73 507.015 1844.8C478.33 1757.42 425.525 1673.3 431.392 1581.36C441.823 1421.61 619.798 1316.62 641.312 1158.17C658.914 1030.37 567.644 901.908 610.671 780.624C637.4 704.984 711.068 654.123 786.691 629.344C862.314 603.913 943.153 599.349 1022.04 583.047C1248.91 537.402 1448.39 403.077 1668.74 332.653Z" stroke="url(#paint15_linear_4_2766)" stroke-width="0.5" stroke-miterlimit="10" stroke-linecap="round" stroke-linejoin="round"/>
<path d="M2550.61 2304.46C2974.76 1880.22 2974.76 1192.4 2550.61 768.155C2126.46 343.915 1438.78 343.915 1014.64 768.155C590.49 1192.39 590.49 1880.22 1014.64 2304.46C1438.78 2728.7 2126.46 2728.7 2550.61 2304.46Z" stroke="url(#paint16_linear_4_2766)" stroke-width="0.5" stroke-miterlimit="10" stroke-linecap="round" stroke-linejoin="round"/>
<path opacity="0.8571" d="M1794.57 396.553C1962.76 397.857 2121.83 470.237 2258.74 547.833C2370.87 611.084 2467.35 696.505 2558.62 787.142C2606.87 834.743 2653.15 884.3 2689.66 941.03C2752.9 1038.84 2782.88 1151.65 2816.78 1265.11C2843.51 1353.79 2872.2 1439.21 2876.11 1535.72C2878.72 1607.44 2868.94 1679.17 2851.34 1746.33C2833.08 1815.45 2807.66 1880.01 2777.02 1943.26C2688.36 2128.45 2561.23 2296.03 2397.6 2417.96C2232.66 2541.2 2025.35 2620.76 1805 2606.41C1763.93 2603.8 1723.51 2596.63 1682.44 2592.07C1610.07 2583.59 1539.01 2579.68 1471.86 2571.2C1376.68 2559.46 1285.41 2534.68 1196.75 2494.26C1083.97 2442.74 978.358 2358.63 913.165 2256.9C829.719 2126.49 808.858 1990.21 772.35 1831.75C746.273 1717.64 712.373 1597.01 721.5 1475.73C732.582 1323.14 780.173 1189.47 847.973 1063.62C905.994 956.028 978.358 853.001 1059.85 762.363C1125.04 689.984 1198.06 616.952 1279.55 564.135C1426.23 468.281 1605.51 395.249 1794.57 396.553Z" stroke="url(#paint17_linear_4_2766)" stroke-width="0.5" stroke-miterlimit="10" stroke-linecap="round" stroke-linejoin="round"/>
<path opacity="0.7143" d="M1805.65 342.434C1969.28 345.043 2125.09 450.678 2254.17 533.49C2363.05 603.261 2453.01 698.463 2547.54 787.797C2597.09 834.746 2648.59 881.042 2685.75 939.076C2748.98 1038.84 2762.02 1158.17 2800.49 1271.63C2831.13 1360.96 2876.11 1438.56 2883.93 1535.07C2889.8 1605.49 2876.76 1675.91 2855.25 1740.47C2833.73 1806.33 2803.09 1866.97 2770.5 1926.96C2674.67 2103.67 2557.97 2273.21 2403.46 2399.71C2247 2527.51 2042.3 2617.5 1827.16 2590.11C1782.83 2584.24 1739.81 2573.16 1695.47 2567.29C1617.24 2557.51 1540.32 2561.42 1467.95 2563.38C1364.95 2565.33 1267.16 2553.6 1166.11 2519.04C1039.64 2475.35 917.729 2382.1 862.315 2265.38C791.255 2115.41 824.504 1974.56 796.471 1801.11C776.913 1675.26 725.411 1544.2 744.317 1414.43C765.179 1267.72 827.763 1149.04 903.386 1032.97C967.927 933.86 1040.29 833.441 1117.22 741.5C1176.54 670.424 1240.43 587.612 1314.75 533.49C1451 434.376 1624.41 340.478 1805.65 342.434Z" stroke="url(#paint18_linear_4_2766)" stroke-width="0.5" stroke-miterlimit="10" stroke-linecap="round" stroke-linejoin="round"/>
<path opacity="0.5714" d="M1817.38 288.965C1977.1 292.877 2128.35 431.115 2250.26 519.797C2355.87 596.741 2439.32 700.419 2537.76 789.101C2589.26 835.397 2645.33 878.434 2682.49 937.772C2746.38 1039.49 2741.81 1165.34 2784.19 1278.8C2818.09 1368.14 2879.37 1438.56 2891.1 1535.72C2899.58 1604.19 2883.93 1673.96 2858.51 1735.9C2833.08 1798.5 2798.53 1855.23 2763.33 1912.61C2660.97 2080.19 2554.06 2252.34 2408.03 2383.41C2260.69 2516.43 2057.94 2614.24 1848.02 2575.11C1801.09 2566.64 1755.45 2550.34 1707.21 2543.82C1623.11 2532.08 1539.66 2545.12 1462.74 2556.86C1352.56 2573.16 1246.95 2573.81 1134.82 2544.47C995.307 2508.6 856.447 2406.23 811.464 2273.86C753.443 2104.32 840.149 1958.91 821.243 1770.46C808.204 1632.88 738.448 1490.73 767.785 1353.79C797.774 1212.94 876.004 1109.92 959.451 1002.98C1029.86 912.341 1103.53 815.183 1175.24 721.286C1228.04 651.514 1284.11 558.921 1351.26 503.495C1475.77 399.816 1643.97 285.052 1817.38 288.965Z" stroke="url(#paint19_linear_4_2766)" stroke-width="0.5" stroke-miterlimit="10" stroke-linecap="round" stroke-linejoin="round"/>
<path opacity="0.4286" d="M1829.12 235.494C1984.28 240.711 2131.61 412.205 2246.35 506.103C2348.7 590.219 2425.63 702.375 2527.33 789.752C2580.79 835.397 2641.42 875.173 2678.58 935.163C2743.12 1038.84 2720.3 1171.21 2767.89 1284.67C2805.7 1374.66 2882.63 1436.6 2898.93 1534.41C2910.01 1600.92 2891.11 1670.7 2863.07 1729.38C2834.39 1789.37 2795.27 1841.54 2757.46 1895.66C2647.94 2054.11 2550.8 2228.87 2414.55 2363.84C2275.69 2502.08 2075.55 2606.41 1870.84 2556.86C1820.65 2544.47 1772.4 2524.25 1720.9 2517.08C1630.94 2504.04 1541.62 2525.56 1459.48 2547.08C1342.13 2577.72 1229.35 2590.11 1105.48 2567.29C952.282 2539.25 797.124 2427.75 761.92 2280.38C716.937 2091.28 857.101 1941.3 847.322 1738.51C840.151 1589.84 752.141 1436.6 792.56 1291.84C830.372 1156.21 925.553 1068.84 1016.82 971.027C1093.75 888.866 1168.07 794.317 1233.91 699.115C1281.5 631.3 1328.44 528.273 1387.77 472.195C1499.9 365.256 1663.53 230.278 1829.12 235.494Z" stroke="url(#paint20_linear_4_2766)" stroke-width="0.5" stroke-miterlimit="10" stroke-linecap="round" stroke-linejoin="round"/>
<path opacity="0.2857" d="M1840.85 181.373C1992.1 187.893 2134.87 392.643 2241.79 491.757C2340.88 583.046 2411.29 704.331 2516.9 790.404C2572.31 835.397 2637.5 871.912 2675.32 933.207C2740.51 1038.84 2700.09 1177.73 2751.59 1291.19C2792.66 1381.83 2885.89 1435.95 2906.1 1534.41C2919.79 1599.62 2898.27 1668.09 2866.33 1724.17C2833.73 1780.9 2790.71 1828.5 2750.29 1880.01C2633.59 2029.98 2546.89 2206.04 2419.11 2346.24C2288.72 2489.69 2091.84 2600.54 1891.7 2541.21C1838.9 2525.56 1788.05 2501.43 1732.63 2492.95C1636.15 2477.96 1541.62 2508.6 1454.26 2539.9C1329.74 2584.24 1209.79 2609.02 1074.19 2592.72C907.949 2572.51 736.493 2451.87 711.068 2289.51C679.123 2080.85 872.745 1925.65 871.441 1708.52C870.789 1548.11 763.222 1383.79 815.376 1231.85C860.358 1101.44 973.141 1030.36 1072.23 941.684C1155.03 868 1230.65 776.058 1291.28 679.552C1333 613.042 1370.82 500.234 1422.97 442.852C1524.02 330.696 1682.44 175.504 1840.85 181.373Z" stroke="url(#paint21_linear_4_2766)" stroke-width="0.5" stroke-miterlimit="10" stroke-linecap="round" stroke-linejoin="round"/>
<path opacity="0.1429" d="M1851.94 127.904C1998.62 135.729 2137.48 374.386 2237.22 477.413C2333.06 576.527 2396.94 705.637 2506.47 790.406C2563.84 835.398 2633.59 868.002 2671.41 929.948C2737.25 1037.54 2679.23 1182.95 2735.29 1296.41C2780.28 1387.05 2889.15 1434 2913.92 1532.46C2929.57 1595.71 2906.1 1663.52 2870.24 1716.99C2834.39 1770.46 2786.8 1814.15 2743.77 1863.06C2620.55 2003.9 2543.63 2182.57 2424.98 2327.33C2303.72 2475.35 2109.45 2592.07 1913.87 2523.6C1857.8 2504.04 1804.35 2476 1746.32 2466.87C1643.97 2450.57 1542.92 2489.69 1451 2530.77C1319.31 2589.46 1192.19 2625.98 1044.85 2615.54C865.574 2602.5 677.168 2473.39 661.522 2296.03C641.964 2068.46 889.695 1908.05 897.519 1675.91C903.386 1504.42 774.957 1328.36 840.149 1169.26C891.651 1043.41 1022.04 988.634 1129.6 909.734C1218.92 844.527 1295.19 755.846 1350.61 657.384C1386.46 592.829 1415.8 468.936 1460.13 410.902C1548.14 296.138 1701.99 120.08 1851.94 127.904Z" stroke="url(#paint22_linear_4_2766)" stroke-width="0.5" stroke-miterlimit="10" stroke-linecap="round" stroke-linejoin="round"/>
<path opacity="0.076923" d="M1387.11 345.695C1613.33 418.726 1797.83 380.906 2009.7 326.133C2178.55 282.444 2484.3 161.811 2643.37 236.147C2800.49 309.179 2863.07 465.675 2868.94 638.473C2870.89 695.203 2801.79 872.566 2812.87 928.643C2833.08 1032.97 2924.35 1106.66 2973.9 1200.56C3029.31 1304.89 3029.31 1437.26 2974.55 1541.59C2946.52 1593.75 2905.45 1641.35 2895.67 1700.04C2878.06 1803.72 3079.51 1893.7 3119.28 1989.56C3129.71 2014.34 3137.53 2041.07 3133.62 2067.81C3129.06 2102.37 3106.89 2131.06 3084.07 2157.14C3020.84 2227.56 2822.65 2285.6 2737.25 2324.72C2593.17 2389.93 2419.11 2407.53 2308.93 2522.3C2231.36 2603.81 2183.11 2732.26 2072.94 2750.52C1975.8 2766.17 1896.27 2684.01 1805.65 2649.45C1723.51 2611.63 1612.68 2691.84 1537.71 2721.83C1434.05 2763.56 1330.4 2804.64 1226.09 2845.72C1068.97 2907.02 900.777 2968.96 735.841 2933.1C598.284 2903.11 478.33 2802.03 426.176 2672.27C370.111 2534.69 388.365 2318.2 514.186 2231.48C576.771 2188.44 655.002 2174.75 714.327 2126.49C789.298 2065.2 812.768 1948.48 778.216 1855.23C735.189 1737.86 632.836 1681.13 533.744 1619.18C400.099 1535.72 280.797 1430.08 183.009 1306.19C135.418 1245.55 93.043 1179.69 70.8776 1105.35C49.3641 1031.02 50.6679 946.901 89.1315 879.086C178.445 721.286 438.563 761.714 587.202 759.758C679.775 758.454 786.039 775.407 877.96 752.585C917.076 742.804 954.887 719.33 971.837 682.814C991.395 639.777 977.053 591.524 976.401 545.88C975.097 481.325 1000.52 415.466 1047.46 367.213C1153.72 253.753 1261.29 304.614 1387.11 345.695Z" stroke="url(#paint23_linear_4_2766)" stroke-width="0.5" stroke-miterlimit="10" stroke-linecap="round" stroke-linejoin="round"/>
<path opacity="0.1538" d="M1419.71 354.17C1638.76 420.681 1818.04 387.425 2022.09 341.781C2187.68 305.265 2477.13 201.586 2632.29 276.574C2782.23 349.606 2844.17 499.581 2855.25 664.554C2859.16 720.632 2799.18 888.213 2810.92 944.943C2832.43 1045.36 2916.53 1118.39 2963.47 1209.68C3015.62 1310.75 3016.27 1438.56 2966.08 1540.28C2940.65 1591.14 2902.84 1637.44 2893.06 1694.17C2876.11 1795.89 3059.3 1883.92 3094.5 1977.82C3103.63 2001.95 3110.15 2028.03 3106.24 2053.46C3101.68 2086.71 3080.81 2114.75 3058.65 2140.18C2998.02 2210.61 2813.53 2269.94 2730.73 2310.37C2593.83 2377.54 2428.89 2398.4 2321.97 2509.25C2246.35 2587.5 2198.11 2708.79 2091.84 2727.7C1998.62 2744 1921.04 2671.62 1833.68 2640.97C1754.15 2607.72 1647.88 2682.7 1574.22 2710.74C1473.82 2749.87 1373.42 2788.34 1272.38 2825.51C1119.83 2882.24 956.844 2937.01 797.123 2901.8C664.13 2872.46 548.088 2776.6 493.326 2654.66C435.305 2524.25 444.432 2320.81 554.607 2235.39C608.717 2193 678.473 2177.35 729.975 2129.75C795.819 2069.76 814.073 1958.26 780.825 1868.27C739.102 1755.46 642.617 1697.43 550.043 1635.48C425.526 1551.37 314.047 1447.04 225.385 1324.45C181.706 1263.8 143.243 1197.95 123.685 1124.91C104.779 1051.88 107.387 969.07 143.894 902.559C229.949 746.063 474.42 772.797 619.147 762.364C708.461 755.844 810.813 767.581 900.779 742.802C938.59 732.369 975.75 709.547 993.352 674.335C1014.21 633.255 1003.78 587.61 1005.74 544.574C1008.35 483.279 1036.38 421.985 1083.32 376.34C1190.23 271.357 1296.5 317.002 1419.71 354.17Z" stroke="url(#paint24_linear_4_2766)" stroke-width="0.5" stroke-miterlimit="10" stroke-linecap="round" stroke-linejoin="round"/>
<path opacity="0.2308" d="M1452.96 363.3C1664.18 423.29 1838.9 394.599 2035.78 358.736C2197.46 328.74 2471.92 242.668 2621.86 318.959C2764.63 391.339 2825.26 535.446 2841.56 692.594C2847.43 748.672 2795.92 905.821 2808.96 962.55C2830.48 1059.06 2909.36 1131.44 2953.04 1220.12C3001.93 1318.58 3003.24 1441.17 2956.95 1540.28C2933.48 1589.84 2898.93 1634.83 2889.8 1689.61C2873.5 1789.37 3039.09 1876.1 3068.43 1968.04C3076.25 1991.51 3081.47 2016.29 3077.55 2041.07C3072.34 2073.02 3052.78 2100.41 3032.57 2125.19C2973.9 2195.61 2803.75 2256.25 2724.21 2298.64C2595.13 2367.1 2438.67 2391.88 2335.01 2498.17C2262 2573.16 2212.45 2686.62 2110.75 2706.83C2021.44 2724.44 1946.47 2660.54 1861.06 2634.45C1783.48 2606.41 1681.78 2674.88 1610.07 2702.27C1512.94 2738.78 1415.15 2774.65 1317.36 2808.55C1168.72 2860.07 1011.61 2908.32 857.752 2873.76C729.323 2844.42 616.54 2754.43 559.822 2639.67C499.193 2516.43 500.497 2326.02 593.722 2241.91C640.009 2200.18 699.986 2182.57 744.969 2135.62C801.686 2076.28 815.377 1970.65 782.129 1883.27C741.057 1775.03 651.092 1716.34 565.69 1653.09C450.299 1568.32 347.295 1464.64 266.456 1344.01C226.037 1283.37 192.137 1218.16 175.839 1145.78C159.541 1073.4 163.452 993.198 198.656 927.339C280.799 772.799 510.928 784.536 651.092 766.278C736.494 755.193 835.586 761.061 922.944 734.327C960.104 723.242 995.96 700.419 1014.21 667.816C1035.73 628.692 1029.86 585.655 1035.08 545.227C1041.59 487.845 1072.23 430.463 1119.17 387.427C1226.74 289.616 1331.7 328.74 1452.96 363.3Z" stroke="url(#paint25_linear_4_2766)" stroke-width="0.5" stroke-miterlimit="10" stroke-linecap="round" stroke-linejoin="round"/>
<path opacity="0.3077" d="M1485.55 371.777C1689.61 425.247 1859.11 401.772 2048.17 374.385C2206.58 351.563 2464.74 282.444 2610.12 360.04C2746.38 432.42 2806.35 569.354 2827.87 719.329C2835.69 775.407 2793.31 922.123 2807.01 978.852C2829.17 1072.1 2901.53 1143.17 2941.95 1229.9C2986.94 1325.75 2989.54 1443.12 2947.82 1540.28C2926.96 1588.54 2895.67 1632.88 2887.19 1685.69C2872.2 1782.85 3018.88 1868.92 3043.65 1958.26C3050.17 1980.43 3054.74 2004.55 3050.83 2028.68C3045.61 2059.33 3026.7 2086.06 3007.8 2110.19C2951.73 2180.61 2795.27 2242.56 2719 2286.25C2597.74 2356.02 2450.4 2384.71 2349.35 2486.43C2278.29 2558.16 2228.75 2663.8 2130.96 2685.31C2045.56 2704.22 1972.54 2648.8 1890.4 2627.28C1815.43 2603.81 1718.29 2667.06 1647.88 2692.49C1554.01 2726.39 1459.48 2759 1364.95 2789.64C1220.87 2835.94 1068.97 2878.33 920.988 2844.42C797.122 2815.73 687.599 2730.96 629.577 2624.02C566.341 2507.95 559.169 2330.59 636.097 2247.12C674.56 2206.04 725.41 2186.48 762.57 2140.19C809.508 2082.15 819.287 1981.08 786.691 1897.62C746.272 1793.94 662.825 1734.6 583.943 1670.7C477.679 1585.28 382.498 1482.9 310.786 1363.57C274.278 1302.93 244.29 1237.72 230.6 1166.65C216.909 1095.57 222.125 1017.32 256.025 952.118C334.907 798.882 549.391 796.925 685.643 770.191C767.785 753.889 862.966 754.541 948.368 725.85C984.224 714.113 1019.43 691.943 1038.99 660.643C1061.8 623.475 1059.85 583.047 1067.67 544.575C1078.75 490.454 1111.35 437.636 1158.29 397.208C1262.6 307.222 1366.9 340.478 1485.55 371.777Z" stroke="url(#paint26_linear_4_2766)" stroke-width="0.5" stroke-miterlimit="10" stroke-linecap="round" stroke-linejoin="round"/>
<path opacity="0.3846" d="M1518.8 380.256C1715.03 427.205 1880.62 408.947 2061.86 390.689C2217.01 375.039 2459.53 322.874 2599.69 401.122C2728.77 473.501 2788.1 603.915 2814.18 746.718C2824.61 802.143 2790.06 938.426 2805.05 995.808C2827.87 1085.14 2893.71 1155.56 2931.52 1239.68C2973.25 1332.93 2975.85 1445.08 2939.35 1539.63C2921.09 1586.58 2892.41 1629.62 2884.58 1680.48C2870.24 1775.68 2998.67 1859.8 3018.23 1947.83C3023.44 1969.34 3026.7 1992.82 3022.79 2015.64C3017.58 2044.98 2999.98 2070.42 2982.37 2093.89C2928.92 2164.31 2786.14 2226.91 2713.13 2272.56C2599.69 2343.63 2460.83 2376.23 2363.05 2473.39C2293.94 2541.86 2243.74 2640.32 2150.52 2662.49C2069.03 2682.05 1997.97 2635.76 1919.08 2618.8C1846.72 2599.89 1754.15 2657.93 1685.7 2681.4C1595.08 2712.7 1503.81 2742.7 1411.89 2770.08C1271.72 2811.16 1125.04 2847.03 982.921 2813.77C863.619 2785.73 758.007 2706.18 697.378 2606.41C631.534 2497.52 615.887 2332.55 677.168 2251.04C707.157 2210.61 748.88 2189.09 778.869 2143.45C816.68 2086.06 821.244 1990.86 789.299 1910.66C750.184 1811.54 673.257 1751.55 600.893 1687C503.756 1600.93 417.05 1499.2 353.814 1381.83C321.218 1321.19 295.141 1255.98 284.058 1186.21C272.975 1115.79 279.494 1040.15 311.439 975.594C387.062 824.314 585.899 808.012 718.24 772.8C797.122 751.934 888.392 746.066 971.186 716.071C1005.74 703.681 1040.29 682.163 1060.5 652.168C1084.62 616.956 1086.58 579.136 1097.01 543.273C1112 493.063 1146.55 443.506 1194.14 406.338C1298.45 325.482 1401.46 352.217 1518.8 380.256Z" stroke="url(#paint27_linear_4_2766)" stroke-width="0.5" stroke-miterlimit="10" stroke-linecap="round" stroke-linejoin="round"/>
<path opacity="0.4615" d="M1552.05 389.383C1741.11 430.464 1901.48 416.77 2075.55 406.989C2227.44 398.512 2453.66 363.3 2589.26 442.853C2711.17 514.58 2770.5 639.125 2801.14 774.103C2813.52 829.529 2788.1 955.378 2803.75 1012.76C2827.21 1098.18 2887.19 1167.95 2921.74 1250.11C2960.21 1340.1 2963.47 1448.34 2931.52 1539.63C2915.22 1585.28 2890.45 1627.66 2883.28 1676.57C2869.59 1769.16 2979.76 1852.62 2994.76 1938.04C2998.67 1958.91 3001.28 1981.08 2996.71 2003.25C2990.85 2031.29 2974.55 2056.07 2958.25 2078.89C2907.4 2149.31 2777.67 2213.22 2707.91 2260.82C2601.65 2333.2 2471.92 2369.71 2377.39 2462.31C2310.89 2527.51 2259.39 2618.15 2170.73 2641.63C2093.15 2662.49 2024.04 2624.67 1948.42 2612.28C1878.01 2597.94 1790.65 2650.75 1723.51 2672.93C1636.15 2701.62 1548.14 2729 1458.83 2752.48C1323.22 2788.34 1181.76 2817.68 1045.5 2785.08C930.766 2757.69 828.414 2683.36 766.481 2590.76C698.029 2489.04 674.56 2337.11 718.891 2256.91C741.056 2217.13 773.652 2193.66 795.818 2148.66C824.503 2092.58 824.503 2002.6 793.21 1925C754.747 1830.45 684.339 1769.16 618.494 1704.6C529.833 1617.88 452.254 1516.81 397.492 1401.39C368.807 1340.1 347.294 1275.54 338.819 1207.08C330.344 1137.96 338.167 1063.62 368.807 1000.37C441.171 850.395 624.362 820.4 752.791 776.059C828.414 749.977 915.772 738.892 995.959 707.592C1029.86 694.551 1063.11 673.033 1084.62 645.646C1109.39 612.39 1115.91 577.179 1129.6 543.923C1149.16 496.974 1185.67 451.982 1233.91 417.422C1334.96 343.086 1436.66 363.953 1552.05 389.383Z" stroke="url(#paint28_linear_4_2766)" stroke-width="0.5" stroke-miterlimit="10" stroke-linecap="round" stroke-linejoin="round"/>
<path opacity="0.5385" d="M1584.65 397.859C1765.88 432.418 1922.34 415.464 2087.93 423.289C2236.57 429.81 2447.14 403.075 2577.53 483.931C2692.92 555.659 2752.24 673.031 2786.8 800.836C2801.79 856.262 2784.19 971.678 2801.14 1029.06C2824.61 1111.22 2878.72 1179.69 2910.01 1259.24C2945.21 1346.62 2949.13 1449.64 2921.09 1538.98C2907.4 1583.32 2885.24 1624.4 2878.72 1671.35C2865.68 1761.98 2958.25 1843.49 2968.03 1927.61C2970.64 1947.82 2971.94 1968.69 2967.38 1989.56C2961.51 2016.29 2946.52 2040.42 2930.87 2062.59C2882.63 2133.01 2766.59 2197.57 2700.09 2247.12C2601.65 2320.15 2480.39 2361.89 2389.12 2449.26C2324.58 2511.21 2273.08 2594.02 2188.33 2619.45C2114.66 2640.97 2048.17 2612.28 1974.5 2604.46C1906.7 2595.33 1823.9 2642.28 1758.06 2662.49C1673.96 2688.57 1589.21 2713.35 1503.16 2733.57C1371.47 2764.21 1235.87 2787.69 1104.83 2755.08C994.005 2727.7 895.564 2659.23 831.675 2574.46C760.616 2479.91 728.671 2341.02 757.356 2261.47C771.046 2222.34 794.516 2196.91 810.162 2152.57C829.068 2097.15 825.156 2013.03 793.864 1938.69C756.704 1848.71 692.164 1786.76 633.49 1720.9C553.956 1633.53 484.851 1533.11 438.565 1419.65C413.14 1358.35 396.19 1293.8 390.322 1226.64C384.455 1158.82 393.582 1086.44 422.919 1023.84C492.023 875.824 659.567 831.484 784.085 778.666C856.448 748.019 939.895 731.065 1018.13 697.81C1050.72 684.116 1083.32 663.25 1105.48 637.167C1131.56 605.868 1141.34 573.265 1158.29 542.618C1181.76 499.581 1220.22 458.501 1269.12 426.549C1370.82 360.691 1471.87 376.34 1584.65 397.859Z" stroke="url(#paint29_linear_4_2766)" stroke-width="0.5" stroke-miterlimit="10" stroke-linecap="round" stroke-linejoin="round"/>
<path opacity="0.6154" d="M1617.9 406.337C1791.31 435.028 1943.86 431.768 2101.62 438.94C2247 445.461 2441.93 442.853 2567.1 525.013C2675.32 596.089 2735.29 707.592 2773.76 827.573C2791.36 882.347 2782.23 987.982 2799.18 1045.36C2823.3 1123.61 2870.89 1191.43 2899.58 1269.02C2930.87 1353.79 2936.09 1451.6 2912.62 1538.33C2900.88 1581.36 2882.63 1621.14 2876.76 1666.13C2865.03 1754.16 2938.69 1835.02 2943.26 1916.53C2944.56 1936.09 2944.56 1955.65 2940 1975.86C2934.13 2001.3 2919.79 2024.77 2906.1 2046.29C2860.46 2116.71 2758.11 2182.57 2694.88 2233.43C2604.26 2307.77 2492.13 2353.41 2403.46 2436.22C2340.88 2494.91 2288.73 2570.55 2208.54 2596.63C2138.13 2619.46 2074.24 2599.24 2003.84 2596.63C1938.64 2592.07 1860.41 2633.8 1795.87 2652.71C1715.03 2676.84 1632.89 2697.7 1550.1 2714.66C1422.97 2740.09 1292.59 2757.04 1167.42 2725.74C1061.15 2699.01 965.971 2636.41 900.127 2558.16C826.459 2470.78 786.692 2344.93 798.427 2266.69C804.294 2228.21 818.636 2200.83 826.459 2157.79C836.238 2103.67 827.111 2024.12 797.123 1953.69C760.615 1868.27 702.594 1805.67 650.44 1739.16C580.032 1651.13 520.055 1550.72 481.591 1439.86C460.078 1378.57 447.039 1314.67 443.78 1248.16C441.172 1180.99 450.951 1111.22 478.984 1049.28C544.828 902.561 697.378 844.527 817.332 783.232C886.436 748.021 965.971 725.198 1041.59 689.987C1072.89 674.989 1104.83 655.427 1127.65 630.648C1155.03 601.957 1168.72 571.31 1188.93 543.271C1216.31 503.495 1257.38 466.979 1306.28 437.636C1406.67 378.298 1507.07 388.079 1617.9 406.337Z" stroke="url(#paint30_linear_4_2766)" stroke-width="0.5" stroke-miterlimit="10" stroke-linecap="round" stroke-linejoin="round"/>
<path opacity="0.6923" d="M1650.49 415.463C1816.73 438.285 1964.72 440.242 2114.66 455.891C2257.43 470.237 2435.41 483.278 2556.01 567.395C2657.06 637.818 2718.34 742.801 2760.07 855.609C2780.28 910.382 2778.97 1004.93 2797.23 1062.97C2821.35 1137.95 2863.72 1204.46 2889.15 1279.45C2917.18 1360.96 2922.4 1454.21 2904.14 1538.32C2895.02 1579.4 2880.02 1619.18 2874.15 1662.22C2863.07 1748.29 2919.14 1827.19 2918.48 1907.39C2918.48 1925.65 2917.83 1945.21 2912.62 1964.12C2906.1 1988.25 2893.71 2011.07 2880.67 2031.94C2837.65 2102.36 2748.33 2168.87 2688.36 2222.34C2604.91 2297.33 2501.91 2347.54 2416.5 2425.79C2356.53 2481.21 2303.72 2549.03 2227.44 2576.42C2160.95 2600.54 2099.02 2588.8 2031.87 2590.76C1969.28 2590.76 1895.62 2626.62 1833.03 2644.23C1755.45 2665.75 1676.57 2684.01 1597.03 2697.7C1473.82 2717.91 1349.3 2728.35 1230 2697.7C1128.3 2671.62 1036.38 2614.24 969.231 2543.16C892.956 2462.96 844.713 2350.15 840.802 2273.2C838.846 2235.38 843.41 2206.04 844.061 2163.66C844.713 2110.19 831.023 2036.5 801.034 1968.69C765.83 1887.83 714.328 1823.93 668.694 1757.42C607.413 1668.09 555.911 1568.97 525.922 1460.73C508.972 1398.78 499.193 1335.53 499.193 1270.32C499.193 1204.46 510.276 1136.65 536.353 1075.36C598.938 930.597 735.842 858.869 851.233 788.446C917.077 748.67 992.7 719.979 1066.37 682.811C1097.01 667.161 1127.65 648.251 1151.77 625.429C1180.45 598.694 1198.06 570.655 1220.87 545.225C1252.82 509.361 1295.19 476.105 1344.74 450.023C1442.53 395.249 1542.27 400.465 1650.49 415.463Z" stroke="url(#paint31_linear_4_2766)" stroke-width="0.5" stroke-miterlimit="10" stroke-linecap="round" stroke-linejoin="round"/>
<path opacity="0.7692" d="M1683.74 423.94C1842.16 440.894 1985.58 448.067 2127.7 471.541C2267.21 494.363 2429.54 522.402 2545.58 607.823C2640.11 677.594 2702.05 776.057 2747.03 882.344C2769.85 936.465 2776.36 1021.23 2795.92 1079.27C2820.04 1150.34 2856.55 1216.2 2878.72 1288.58C2903.49 1367.48 2909.36 1455.51 2895.02 1537.67C2888.5 1577.45 2876.11 1615.92 2871.55 1657C2861.77 1740.46 2899.58 1818.71 2893.06 1896.31C2891.76 1913.91 2889.8 1932.17 2884.58 1950.43C2878.07 1973.25 2866.33 1994.77 2855.25 2015.64C2815.48 2086.71 2738.55 2153.22 2682.49 2208.65C2606.21 2284.29 2512.34 2339.06 2430.19 2413.4C2372.17 2465.56 2318.71 2525.55 2247 2554.25C2184.42 2579.02 2124.44 2577.07 2060.55 2582.94C1999.92 2587.5 1931.47 2618.15 1870.19 2633.8C1795.87 2652.71 1720.25 2668.36 1643.32 2678.14C1524.67 2693.79 1405.37 2697.7 1291.28 2667.05C1194.14 2640.97 1105.48 2589.46 1036.38 2526.21C957.496 2453.18 901.43 2353.41 880.568 2277.12C870.79 2239.95 866.226 2208.65 859.055 2166.92C850.58 2114.75 832.326 2046.28 802.99 1981.73C768.438 1905.44 723.455 1840.88 684.339 1773.72C632.185 1683.74 589.81 1585.27 567.645 1478.99C554.606 1417.04 549.391 1353.79 551.347 1289.89C553.954 1225.33 566.341 1158.82 591.114 1098.83C650.439 955.375 772.349 869.954 883.176 791.054C945.761 746.714 1017.47 712.806 1088.53 673.03C1117.87 656.728 1147.86 637.818 1172.63 616.952C1201.97 592.174 1224.13 566.743 1250.21 543.921C1286.07 511.317 1331.05 482.626 1380.59 459.152C1477.73 412.855 1576.82 412.855 1683.74 423.94Z" stroke="url(#paint32_linear_4_2766)" stroke-width="0.5" stroke-miterlimit="10" stroke-linecap="round" stroke-linejoin="round"/>
<path opacity="0.8462" d="M1716.99 432.421C1867.58 443.506 2007.09 456.547 2141.39 487.846C2276.99 519.146 2424.33 562.182 2535.15 649.559C2623.16 718.678 2685.75 810.62 2733.34 909.734C2759.41 963.856 2773.11 1038.19 2793.97 1096.23C2818.09 1164.04 2848.73 1228.6 2868.29 1299.02C2889.8 1375.31 2896.32 1458.12 2886.54 1537.68C2881.98 1576.15 2873.5 1613.97 2868.94 1652.44C2859.81 1733.95 2880.02 1810.89 2868.29 1886.53C2865.68 1903.49 2863.07 1920.44 2857.86 1938.04C2851.34 1959.56 2840.91 1980.43 2830.47 2000.64C2793.31 2071.72 2730.08 2138.88 2677.27 2196.92C2608.17 2273.21 2523.42 2332.55 2444.54 2402.32C2388.47 2451.22 2334.36 2504.04 2267.21 2533.38C2208.54 2559.47 2150.52 2565.99 2089.24 2576.42C2031.22 2585.55 1966.67 2610.98 1907.35 2625.32C1836.29 2641.63 1763.93 2654.02 1690.26 2661.19C1575.52 2671.62 1462.09 2669.01 1353.87 2639.02C1261.29 2613.59 1175.89 2567.94 1105.48 2511.21C1023.99 2445.35 959.452 2357.98 922.292 2283.64C904.038 2247.12 891 2213.87 876.657 2172.79C859.055 2121.93 835.586 2058.68 806.901 1996.73C773.001 1925 734.538 1859.8 702.594 1791.33C659.566 1700.69 626.318 1602.88 611.976 1498.55C602.849 1435.95 601.545 1373.35 606.109 1310.76C611.324 1246.85 625.014 1182.95 648.484 1123.61C704.549 981.462 810.813 882.999 917.729 794.97C977.054 746.065 1044.85 706.289 1113.31 664.557C1141.34 647.603 1170.68 629.345 1196.1 609.783C1226.74 586.961 1252.82 564.138 1281.5 543.924C1321.92 515.233 1368.21 489.802 1419.06 468.936C1513.59 429.812 1612.03 425.248 1716.99 432.421Z" stroke="url(#paint33_linear_4_2766)" stroke-width="0.5" stroke-miterlimit="10" stroke-linecap="round" stroke-linejoin="round"/>
<path opacity="0.9231" d="M1749.58 441.548C1892.36 446.765 2027.3 466.327 2153.78 504.147C2286.12 543.923 2417.81 601.957 2523.42 691.29C2604.26 759.757 2668.15 844.526 2719 937.12C2748.33 990.589 2769.19 1055.14 2791.36 1113.18C2815.48 1177.08 2840.91 1241.64 2857.2 1308.8C2874.81 1381.83 2881.98 1460.08 2877.41 1537.02C2874.81 1574.19 2870.24 1610.71 2866.33 1647.87C2857.86 1726.77 2860.46 1802.41 2843.51 1876.1C2839.6 1892.4 2835.69 1908.7 2830.48 1925C2823.3 1945.87 2814.83 1965.43 2805.05 1984.99C2771.15 2056.07 2720.3 2123.88 2671.41 2183.87C2609.47 2260.17 2534.5 2325.37 2458.23 2389.93C2404.77 2435.57 2350.01 2480.56 2286.77 2511.86C2232.01 2538.6 2176.59 2554.25 2117.92 2569.25C2062.51 2583.59 2002.53 2603.15 1944.51 2615.54C1876.71 2629.89 1807.61 2639.02 1736.55 2642.28C1626.37 2647.49 1518.15 2638.37 1415.15 2609.67C1327.14 2584.9 1244.99 2544.47 1172.63 2494.91C1087.88 2436.88 1016.17 2361.89 962.711 2288.86C936.634 2252.99 913.817 2217.78 892.303 2177.35C865.574 2127.14 837.542 2069.11 809.509 2011.08C776.913 1943.26 744.968 1878.05 718.891 1808.93C684.339 1717.65 661.522 1619.83 654.351 1518.11C649.787 1455.51 651.743 1392.92 659.566 1331.62C667.389 1269.02 682.384 1207.08 703.897 1148.39C756.703 1008.2 847.972 896.039 950.325 798.881C1006.39 745.412 1069.63 699.767 1136.78 656.078C1164.16 638.473 1192.19 620.867 1218.92 602.609C1250.86 581.743 1280.85 561.529 1312.14 543.923C1356.47 518.492 1404.72 496.974 1456.22 479.368C1549.44 446.765 1647.23 437.636 1749.58 441.548Z" stroke="url(#paint34_linear_4_2766)" stroke-width="0.5" stroke-miterlimit="10" stroke-linecap="round" stroke-linejoin="round"/>
<path d="M2550.61 2304.46C2974.75 1880.22 2974.75 1192.4 2550.61 768.155C2126.46 343.915 1438.78 343.915 1014.64 768.155C590.49 1192.4 590.49 1880.22 1014.64 2304.46C1438.78 2728.7 2126.46 2728.7 2550.61 2304.46Z" stroke="url(#paint35_linear_4_2766)" stroke-width="0.5" stroke-miterlimit="10" stroke-linecap="round" stroke-linejoin="round"/>
<defs>
<linearGradient id="paint0_linear_4_2766" x1="686.726" y1="1536.57" x2="2878.57" y2="1536.57" gradientUnits="userSpaceOnUse">
<stop stop-color="#72E97E"/>
<stop offset="1" stop-color="#00ADF3"/>
</linearGradient>
<linearGradient id="paint1_linear_4_2766" x1="986.331" y1="755.761" x2="2562.15" y2="2331.24" gradientUnits="userSpaceOnUse">
<stop stop-color="#72E97E"/>
<stop offset="1" stop-color="#00A9F4"/>
</linearGradient>
<linearGradient id="paint2_linear_4_2766" x1="966.064" y1="748.691" x2="2569.59" y2="2351.87" gradientUnits="userSpaceOnUse">
<stop stop-color="#72E97E"/>
<stop offset="1" stop-color="#00A4F4"/>
</linearGradient>
<linearGradient id="paint3_linear_4_2766" x1="946.765" y1="740.528" x2="2578.96" y2="2372.37" gradientUnits="userSpaceOnUse">
<stop stop-color="#72E97E"/>
<stop offset="1" stop-color="#00A0F5"/>
</linearGradient>
<linearGradient id="paint4_linear_4_2766" x1="928.371" y1="731.38" x2="2589.75" y2="2392.39" gradientUnits="userSpaceOnUse">
<stop stop-color="#72E97E"/>
<stop offset="1" stop-color="#009BF6"/>
</linearGradient>
<linearGradient id="paint5_linear_4_2766" x1="910.68" y1="721.483" x2="2601.51" y2="2411.94" gradientUnits="userSpaceOnUse">
<stop stop-color="#72E97E"/>
<stop offset="1" stop-color="#0097F7"/>
</linearGradient>
<linearGradient id="paint6_linear_4_2766" x1="893.544" y1="711.003" x2="2613.98" y2="2431.06" gradientUnits="userSpaceOnUse">
<stop stop-color="#72E97E"/>
<stop offset="1" stop-color="#0093F8"/>
</linearGradient>
<linearGradient id="paint7_linear_4_2766" x1="876.851" y1="700.058" x2="2627.01" y2="2449.83" gradientUnits="userSpaceOnUse">
<stop stop-color="#72E97E"/>
<stop offset="1" stop-color="#008EF8"/>
</linearGradient>
<linearGradient id="paint8_linear_4_2766" x1="860.511" y1="688.749" x2="2640.45" y2="2468.3" gradientUnits="userSpaceOnUse">
<stop stop-color="#72E97E"/>
<stop offset="1" stop-color="#008AF9"/>
</linearGradient>
<linearGradient id="paint9_linear_4_2766" x1="844.454" y1="677.142" x2="2654.24" y2="2486.52" gradientUnits="userSpaceOnUse">
<stop stop-color="#72E97E"/>
<stop offset="1" stop-color="#0086FA"/>
</linearGradient>
<linearGradient id="paint10_linear_4_2766" x1="828.614" y1="665.307" x2="2668.27" y2="2504.56" gradientUnits="userSpaceOnUse">
<stop stop-color="#72E97E"/>
<stop offset="1" stop-color="#0081FB"/>
</linearGradient>
<linearGradient id="paint11_linear_4_2766" x1="812.887" y1="653.359" x2="2682.46" y2="2522.52" gradientUnits="userSpaceOnUse">
<stop stop-color="#72E97E"/>
<stop offset="1" stop-color="#007DFB"/>
</linearGradient>
<linearGradient id="paint12_linear_4_2766" x1="797.243" y1="641.315" x2="2696.74" y2="2540.39" gradientUnits="userSpaceOnUse">
<stop stop-color="#72E97E"/>
<stop offset="1" stop-color="#0079FC"/>
</linearGradient>
<linearGradient id="paint13_linear_4_2766" x1="781.668" y1="629.202" x2="2711.11" y2="2558.22" gradientUnits="userSpaceOnUse">
<stop stop-color="#72E97E"/>
<stop offset="1" stop-color="#0074FD"/>
</linearGradient>
<linearGradient id="paint14_linear_4_2766" x1="766.15" y1="617.03" x2="2725.55" y2="2576" gradientUnits="userSpaceOnUse">
<stop stop-color="#72E97E"/>
<stop offset="1" stop-color="#0070FE"/>
</linearGradient>
<linearGradient id="paint15_linear_4_2766" x1="750.679" y1="604.804" x2="2740.04" y2="2593.73" gradientUnits="userSpaceOnUse">
<stop stop-color="#72E97E"/>
<stop offset="1" stop-color="#006BFE"/>
</linearGradient>
<linearGradient id="paint16_linear_4_2766" x1="686.726" y1="1536.57" x2="2878.57" y2="1536.57" gradientUnits="userSpaceOnUse">
<stop stop-color="#72E97E"/>
<stop offset="1" stop-color="#00ADF3"/>
</linearGradient>
<linearGradient id="paint17_linear_4_2766" x1="866.483" y1="1014.21" x2="2699.94" y2="2098.03" gradientUnits="userSpaceOnUse">
<stop stop-color="#72E97E"/>
<stop offset="1" stop-color="#00A3F5"/>
</linearGradient>
<linearGradient id="paint18_linear_4_2766" x1="826.732" y1="1142.48" x2="2777.59" y2="1945.87" gradientUnits="userSpaceOnUse">
<stop stop-color="#72E97E"/>
<stop offset="1" stop-color="#0099F6"/>
</linearGradient>
<linearGradient id="paint19_linear_4_2766" x1="904.609" y1="1057.95" x2="2651.01" y2="2105.38" gradientUnits="userSpaceOnUse">
<stop stop-color="#72E97E"/>
<stop offset="1" stop-color="#008FF8"/>
</linearGradient>
<linearGradient id="paint20_linear_4_2766" x1="1106.63" y1="597.637" x2="2245.51" y2="2496.31" gradientUnits="userSpaceOnUse">
<stop stop-color="#72E97E"/>
<stop offset="1" stop-color="#0085FA"/>
</linearGradient>
<linearGradient id="paint21_linear_4_2766" x1="1198.52" y1="415.901" x2="2083.64" y2="2563.93" gradientUnits="userSpaceOnUse">
<stop stop-color="#72E97E"/>
<stop offset="1" stop-color="#007BFC"/>
</linearGradient>
<linearGradient id="paint22_linear_4_2766" x1="1030.18" y1="564.336" x2="2188.29" y2="2522.72" gradientUnits="userSpaceOnUse">
<stop stop-color="#72E97E"/>
<stop offset="1" stop-color="#0071FD"/>
</linearGradient>
<linearGradient id="paint23_linear_4_2766" x1="509.279" y1="436.083" x2="2661.64" y2="2587.97" gradientUnits="userSpaceOnUse">
<stop stop-color="#72E97E"/>
<stop offset="1" stop-color="#006FFE"/>
</linearGradient>
<linearGradient id="paint24_linear_4_2766" x1="557.807" y1="466.294" x2="2650.61" y2="2558.64" gradientUnits="userSpaceOnUse">
<stop stop-color="#72E97E"/>
<stop offset="1" stop-color="#0077FD"/>
</linearGradient>
<linearGradient id="paint25_linear_4_2766" x1="606.107" y1="496.445" x2="2639.57" y2="2529.46" gradientUnits="userSpaceOnUse">
<stop stop-color="#72E97E"/>
<stop offset="1" stop-color="#007FFC"/>
</linearGradient>
<linearGradient id="paint26_linear_4_2766" x1="654.154" y1="526.472" x2="2628.56" y2="2500.45" gradientUnits="userSpaceOnUse">
<stop stop-color="#72E97E"/>
<stop offset="1" stop-color="#0087FB"/>
</linearGradient>
<linearGradient id="paint27_linear_4_2766" x1="701.859" y1="556.338" x2="2617.6" y2="2471.66" gradientUnits="userSpaceOnUse">
<stop stop-color="#72E97E"/>
<stop offset="1" stop-color="#008FFA"/>
</linearGradient>
<linearGradient id="paint28_linear_4_2766" x1="749.09" y1="585.978" x2="2606.72" y2="2443.19" gradientUnits="userSpaceOnUse">
<stop stop-color="#72E97E"/>
<stop offset="1" stop-color="#0097F9"/>
</linearGradient>
<linearGradient id="paint29_linear_4_2766" x1="795.643" y1="615.298" x2="2595.97" y2="2415.23" gradientUnits="userSpaceOnUse">
<stop stop-color="#72E97E"/>
<stop offset="1" stop-color="#00A0F9"/>
</linearGradient>
<linearGradient id="paint30_linear_4_2766" x1="841.178" y1="644.138" x2="2585.5" y2="2388.07" gradientUnits="userSpaceOnUse">
<stop stop-color="#72E97E"/>
<stop offset="1" stop-color="#00A8F8"/>
</linearGradient>
<linearGradient id="paint31_linear_4_2766" x1="885.11" y1="672.189" x2="2575.57" y2="2362.28" gradientUnits="userSpaceOnUse">
<stop stop-color="#72E97E"/>
<stop offset="1" stop-color="#00B0F7"/>
</linearGradient>
<linearGradient id="paint32_linear_4_2766" x1="926.368" y1="698.836" x2="2567.07" y2="2339.17" gradientUnits="userSpaceOnUse">
<stop stop-color="#72E97E"/>
<stop offset="1" stop-color="#00B8F6"/>
</linearGradient>
<linearGradient id="paint33_linear_4_2766" x1="962.842" y1="722.829" x2="2563.72" y2="2323.36" gradientUnits="userSpaceOnUse">
<stop stop-color="#72E97E"/>
<stop offset="1" stop-color="#00C0F5"/>
</linearGradient>
<linearGradient id="paint34_linear_4_2766" x1="990.68" y1="742.785" x2="2561.38" y2="2313.14" gradientUnits="userSpaceOnUse">
<stop stop-color="#72E97E"/>
<stop offset="1" stop-color="#00C8F4"/>
</linearGradient>
<linearGradient id="paint35_linear_4_2766" x1="686.726" y1="1536.57" x2="2878.56" y2="1536.57" gradientUnits="userSpaceOnUse">
<stop stop-color="#72E97E"/>
<stop offset="1" stop-color="#00D0F3"/>
</linearGradient>
</defs>
</svg>
