<svg width="1613" height="1613" viewBox="0 0 1613 1613" fill="none" xmlns="http://www.w3.org/2000/svg">
<path opacity="0.15" d="M926.376 1342.52V1343.52H927.376H1061.13H1062.12H1063.12V1342.52V1054.2C1063.12 962.488 988.362 888.726 897.652 888.726H713.366C621.658 888.726 547.896 963.487 547.896 1054.2V1342.52V1343.52H548.896H682.652H683.652V1342.52V1054.2C683.652 1038.87 696.106 1025.47 712.375 1025.47H897.652C912.974 1025.47 926.376 1037.93 926.376 1054.2V1342.52ZM1062.13 690.578V690.567L1060.15 507.272L1060.14 506.283H1059.15H925.394H924.394V507.283V690.578C924.394 706.869 911.962 719.302 895.671 719.302H711.385C696.062 719.302 682.661 706.848 682.661 690.578V507.283V506.283H681.661H547.905H546.905V507.283V690.578C546.905 782.287 621.665 856.049 712.375 856.049H896.662C988.37 856.049 1062.13 781.288 1062.13 690.578ZM1 806.5C1 361.198 361.198 1 806.5 1C1250.81 1 1611.01 361.198 1612 806.502C1612 1251.8 1250.81 1612 806.5 1612C361.199 1612 1 1250.81 1 806.5ZM300.208 646.993C315.622 646.993 327.959 634.656 327.959 619.241V439.909C327.959 424.495 315.622 412.158 300.208 412.158H264.54C249.126 412.158 236.789 424.495 236.789 439.909V619.241C236.789 634.656 249.126 646.993 264.54 646.993H300.208ZM454.771 712.385C478.111 712.385 497.384 693.112 497.384 669.771V389.379C497.384 366.039 478.111 346.766 454.771 346.766H399.287C375.947 346.766 356.674 366.039 356.674 389.379V669.771C356.674 693.112 375.947 712.385 399.287 712.385H454.771ZM1213.71 712.385C1237.05 712.385 1256.33 693.112 1256.33 669.771V389.379C1256.33 366.039 1237.05 346.766 1213.71 346.766H1158.23C1134.89 346.766 1115.62 366.039 1115.62 389.379V669.771C1115.62 693.112 1134.89 712.385 1158.23 712.385H1213.71ZM1348.46 646.993C1363.87 646.993 1376.21 634.656 1376.21 619.241V439.909C1376.21 424.495 1363.87 412.158 1348.46 412.158H1312.79C1297.38 412.158 1285.04 424.495 1285.04 439.909V619.241C1285.04 634.656 1297.38 646.993 1312.79 646.993H1348.46Z" stroke="#425C7B" stroke-width="2"/>
</svg>
